# xmcd CD database file
#
# Track frame offsets:
#	150
#	29043
#	77579
#	107223
#	150413
#	167531
#	188453
#	207345
#	238126
#	259860
#
# Disc length: 4074 seconds
#
# Revision: 0
# Processed by: cddbd v1.5.1PL0 Copyright (c) Steve Scherf et al.
# Submitted via: CDex 1.50beta10
#
DISCID=7b0fe80a
DTITLE=Andile Yenana - Who's Got the Map?
DYEAR=2005
DGENRE=Jazz
TTITLE0=Pedal Point
TTITLE1=Sydney's Etude
TTITLE2=Dream Walker
TTITLE3=Rwanda
TTITLE4=Umunyu
TTITLE5=South Central
TTITLE6=Mr. Harris
TTITLE7=Flat No. 22
TTITLE8=Pillar To Post
TTITLE9=Sydney's Etude 2
EXTD=YEAR: 2005
EXTT0=
EXTT1=
EXTT2=
EXTT3=
EXTT4=
EXTT5=
EXTT6=
EXTT7=
EXTT8=
EXTT9=
PLAYORDER=
